<svg xmlns="http://www.w3.org/2000/svg" xmlns:xlink="http://www.w3.org/1999/xlink" width="300" zoomAndPan="magnify" viewBox="0 0 97.5 30.000001" height="100" preserveAspectRatio="xMidYMid meet" version="1.0"><defs><g/><clipPath id="bdcc1e2539"><path d="M 88.578125 18.464844 L 93.683594 18.464844 L 93.683594 23.492188 L 88.578125 23.492188 Z M 88.578125 18.464844 " clip-rule="nonzero"/></clipPath><clipPath id="ec7faceb6a"><path d="M 91.121094 18.464844 C 89.71875 18.464844 88.578125 19.589844 88.578125 20.976562 C 88.578125 22.367188 89.71875 23.492188 91.121094 23.492188 C 92.527344 23.492188 93.667969 22.367188 93.667969 20.976562 C 93.667969 19.589844 92.527344 18.464844 91.121094 18.464844 Z M 91.121094 18.464844 " clip-rule="nonzero"/></clipPath></defs><g fill="#ffffff" fill-opacity="1"><g transform="translate(3.314341, 21.885086)"><g><path d="M 3.8125 0 L 1.359375 0 L 1.359375 -12.109375 L 3.3125 -12.109375 L 3.8125 -11.046875 C 4.21875 -11.429688 4.707031 -11.75 5.28125 -12 C 5.851562 -12.25 6.476562 -12.375 7.15625 -12.375 C 7.59375 -12.375 8.085938 -12.304688 8.640625 -12.171875 C 9.191406 -12.035156 9.707031 -11.78125 10.1875 -11.40625 C 10.675781 -11.039062 11.082031 -10.53125 11.40625 -9.875 C 11.738281 -9.21875 11.90625 -8.367188 11.90625 -7.328125 L 11.90625 0 L 9.578125 0 L 9.578125 -7.359375 C 9.578125 -7.878906 9.492188 -8.316406 9.328125 -8.671875 C 9.171875 -9.035156 8.960938 -9.328125 8.703125 -9.546875 C 8.441406 -9.765625 8.144531 -9.921875 7.8125 -10.015625 C 7.488281 -10.109375 7.148438 -10.15625 6.796875 -10.15625 C 6.523438 -10.15625 6.21875 -10.101562 5.875 -10 C 5.53125 -9.90625 5.207031 -9.742188 4.90625 -9.515625 C 4.601562 -9.285156 4.34375 -9 4.125 -8.65625 C 3.914062 -8.3125 3.8125 -7.882812 3.8125 -7.375 Z M 3.8125 0 "/></g></g></g><g fill="#ffffff" fill-opacity="1"><g transform="translate(16.806668, 21.885086)"><g><path d="M 9.59375 -1.09375 C 9.175781 -0.695312 8.6875 -0.375 8.125 -0.125 C 7.5625 0.125 6.929688 0.25 6.234375 0.25 C 5.796875 0.25 5.300781 0.1875 4.75 0.0625 C 4.195312 -0.0625 3.675781 -0.304688 3.1875 -0.671875 C 2.707031 -1.046875 2.300781 -1.554688 1.96875 -2.203125 C 1.644531 -2.859375 1.484375 -3.707031 1.484375 -4.75 L 1.484375 -12.109375 L 3.8125 -12.109375 L 3.8125 -4.75 C 3.8125 -4.226562 3.890625 -3.785156 4.046875 -3.421875 C 4.210938 -3.054688 4.425781 -2.765625 4.6875 -2.546875 C 4.945312 -2.328125 5.242188 -2.164062 5.578125 -2.0625 C 5.921875 -1.96875 6.269531 -1.921875 6.625 -1.921875 C 6.894531 -1.921875 7.203125 -1.96875 7.546875 -2.0625 C 7.890625 -2.164062 8.210938 -2.332031 8.515625 -2.5625 C 8.816406 -2.789062 9.070312 -3.082031 9.28125 -3.4375 C 9.488281 -3.789062 9.59375 -4.21875 9.59375 -4.71875 L 9.59375 -12.109375 L 12.046875 -12.109375 L 12.046875 0 L 10.109375 0 Z M 9.59375 -1.09375 "/></g></g></g><g fill="#ffffff" fill-opacity="1"><g transform="translate(30.324261, 21.885086)"><g><path d="M 7.984375 -0.03125 C 7.296875 0.207031 6.613281 0.351562 5.9375 0.40625 C 5.257812 0.457031 4.648438 0.359375 4.109375 0.109375 C 3.578125 -0.128906 3.140625 -0.554688 2.796875 -1.171875 C 2.460938 -1.785156 2.296875 -2.648438 2.296875 -3.765625 L 2.296875 -9.90625 L 0.53125 -9.90625 L 0.53125 -11.59375 L 2.296875 -12.109375 L 2.296875 -15.34375 L 4.75 -15.34375 L 4.75 -12.109375 L 8.03125 -12.109375 L 8.03125 -9.90625 L 4.75 -9.90625 L 4.75 -3.390625 C 4.75 -2.984375 4.796875 -2.660156 4.890625 -2.421875 C 4.984375 -2.191406 5.140625 -2.015625 5.359375 -1.890625 C 5.578125 -1.773438 5.863281 -1.71875 6.21875 -1.71875 C 6.570312 -1.71875 7 -1.75 7.5 -1.8125 Z M 7.984375 -0.03125 "/></g></g></g><g fill="#ffffff" fill-opacity="1"><g transform="translate(38.965415, 21.885086)"><g><path d="M 8.71875 -9.859375 C 8.601562 -9.898438 8.484375 -9.945312 8.359375 -10 C 8.265625 -10.039062 8.148438 -10.078125 8.015625 -10.109375 C 7.878906 -10.140625 7.734375 -10.15625 7.578125 -10.15625 C 7.085938 -10.15625 6.628906 -10.070312 6.203125 -9.90625 C 5.785156 -9.75 5.425781 -9.535156 5.125 -9.265625 C 4.820312 -9.003906 4.582031 -8.691406 4.40625 -8.328125 C 4.226562 -7.960938 4.140625 -7.578125 4.140625 -7.171875 L 4.125 0 L 1.671875 0 L 1.671875 -12.109375 L 3.609375 -12.109375 L 4.125 -10.765625 C 4.457031 -11.253906 4.894531 -11.644531 5.4375 -11.9375 C 5.988281 -12.226562 6.675781 -12.375 7.5 -12.375 C 8.039062 -12.375 8.65625 -12.300781 9.34375 -12.15625 Z M 8.71875 -9.859375 "/></g></g></g><g fill="#ffffff" fill-opacity="1"><g transform="translate(48.516167, 21.885086)"><g><path d="M 3.96875 0 L 1.515625 0 L 1.515625 -12.109375 L 3.9375 -12.109375 Z M 2.734375 -14.734375 C 2.296875 -14.734375 1.921875 -14.890625 1.609375 -15.203125 C 1.304688 -15.515625 1.15625 -15.890625 1.15625 -16.328125 C 1.15625 -16.765625 1.304688 -17.132812 1.609375 -17.4375 C 1.921875 -17.738281 2.296875 -17.890625 2.734375 -17.890625 C 3.171875 -17.890625 3.539062 -17.738281 3.84375 -17.4375 C 4.144531 -17.132812 4.296875 -16.765625 4.296875 -16.328125 C 4.296875 -15.890625 4.144531 -15.515625 3.84375 -15.203125 C 3.539062 -14.890625 3.171875 -14.734375 2.734375 -14.734375 Z M 2.734375 -14.734375 "/></g></g></g><g fill="#ffffff" fill-opacity="1"><g transform="translate(53.822137, 21.885086)"><g><path d="M 7.984375 -0.03125 C 7.296875 0.207031 6.613281 0.351562 5.9375 0.40625 C 5.257812 0.457031 4.648438 0.359375 4.109375 0.109375 C 3.578125 -0.128906 3.140625 -0.554688 2.796875 -1.171875 C 2.460938 -1.785156 2.296875 -2.648438 2.296875 -3.765625 L 2.296875 -9.90625 L 0.53125 -9.90625 L 0.53125 -11.59375 L 2.296875 -12.109375 L 2.296875 -15.34375 L 4.75 -15.34375 L 4.75 -12.109375 L 8.03125 -12.109375 L 8.03125 -9.90625 L 4.75 -9.90625 L 4.75 -3.390625 C 4.75 -2.984375 4.796875 -2.660156 4.890625 -2.421875 C 4.984375 -2.191406 5.140625 -2.015625 5.359375 -1.890625 C 5.578125 -1.773438 5.863281 -1.71875 6.21875 -1.71875 C 6.570312 -1.71875 7 -1.75 7.5 -1.8125 Z M 7.984375 -0.03125 "/></g></g></g><g fill="#ffffff" fill-opacity="1"><g transform="translate(62.463291, 21.885086)"><g><path d="M 3.96875 0 L 1.515625 0 L 1.515625 -12.109375 L 3.9375 -12.109375 Z M 2.734375 -14.734375 C 2.296875 -14.734375 1.921875 -14.890625 1.609375 -15.203125 C 1.304688 -15.515625 1.15625 -15.890625 1.15625 -16.328125 C 1.15625 -16.765625 1.304688 -17.132812 1.609375 -17.4375 C 1.921875 -17.738281 2.296875 -17.890625 2.734375 -17.890625 C 3.171875 -17.890625 3.539062 -17.738281 3.84375 -17.4375 C 4.144531 -17.132812 4.296875 -16.765625 4.296875 -16.328125 C 4.296875 -15.890625 4.144531 -15.515625 3.84375 -15.203125 C 3.539062 -14.890625 3.171875 -14.734375 2.734375 -14.734375 Z M 2.734375 -14.734375 "/></g></g></g><g fill="#ffffff" fill-opacity="1"><g transform="translate(67.769262, 21.885086)"><g><path d="M 3.15625 0 L 3.15625 -9.90625 L 1.09375 -9.90625 L 1.09375 -11.59375 L 3.15625 -12.109375 L 3.15625 -13.5625 C 3.15625 -14.425781 3.265625 -15.171875 3.484375 -15.796875 C 3.703125 -16.429688 4 -16.953125 4.375 -17.359375 C 4.757812 -17.765625 5.195312 -18.0625 5.6875 -18.25 C 6.175781 -18.445312 6.695312 -18.546875 7.25 -18.546875 C 7.9375 -18.546875 8.632812 -18.398438 9.34375 -18.109375 L 9.34375 -16.328125 C 8.738281 -16.503906 8.21875 -16.59375 7.78125 -16.59375 C 7.09375 -16.59375 6.554688 -16.382812 6.171875 -15.96875 C 5.796875 -15.550781 5.609375 -14.878906 5.609375 -13.953125 L 5.609375 -12.109375 L 9.34375 -12.109375 L 9.34375 -9.90625 L 5.609375 -9.90625 L 5.609375 0 Z M 3.15625 0 "/></g></g></g><g fill="#ffffff" fill-opacity="1"><g transform="translate(77.370544, 21.885086)"><g><path d="M 5.375 -1.359375 L 0.25 -12.109375 L 2.984375 -12.109375 L 6.71875 -4.25 L 10.390625 -12.109375 L 13.09375 -12.109375 L 5.28125 4.828125 L 2.578125 4.828125 Z M 5.375 -1.359375 "/></g></g></g><g clip-path="url(#bdcc1e2539)"><g clip-path="url(#ec7faceb6a)"><path fill="#2dfd16" d="M 88.578125 18.464844 L 93.664062 18.464844 L 93.664062 23.492188 L 88.578125 23.492188 Z M 88.578125 18.464844 " fill-opacity="1" fill-rule="nonzero"/></g></g></svg>